Coordinates
version=1
nRows=22
nColumns=24
inDegrees=yes

Units are S.I. units (second, meters, Newtons, ...)
If the header above contains a line with 'inDegrees', this indicates whether rotational values are in degrees (yes) or radians (no).

endheader
time	pelvis_tilt	pelvis_list	pelvis_rotation	pelvis_tx	pelvis_ty	pelvis_tz	hip_flexion_r	hip_adduction_r	hip_rotation_r	knee_angle_r	ankle_angle_r	subtalar_angle_r	mtp_angle_r	hip_flexion_l	hip_adduction_l	hip_rotation_l	knee_angle_l	ankle_angle_l	subtalar_angle_l	mtp_angle_l	lumbar_extension	lumbar_bending	lumbar_rotation
      0.50000000	      0.88058619	      0.26528626	     -1.02856883	     -0.72885316	      0.73871748	      0.37788081	      6.82772265	      2.29831217	    -11.20372704	    -20.98869038	     20.86664555	     -1.01299532	      0.00000000	     28.22844534	     -2.89596207	     -5.80375848	    -65.71270423	     -7.63310293	    -25.07077226	      0.00000000	    -11.87442892	     -0.66515580	     11.51194714
      0.50666667	      0.79983704	      0.19880594	     -1.19407682	     -0.72134966	      0.73848870	      0.37810392	      6.23802690	      2.37924198	    -11.24756313	    -20.93137866	     21.06308328	     -1.02656417	      0.00000000	     28.94463911	     -2.97678905	     -6.00204199	    -64.09881141	     -7.61885296	    -25.02919060	      0.00000000	    -11.82706178	     -0.59511172	     11.55006967
      0.51333333	      1.17758201	      0.36744106	     -1.65505415	     -0.71310417	      0.73892242	      0.37867270	      4.80936044	      2.32172301	    -10.58859598	    -20.32021206	     21.62776790	     -0.88886122	      0.00000000	     28.76397782	     -3.04190876	     -6.81345572	    -62.00351757	     -7.38390645	    -25.04598247	      0.00000000	    -12.22787043	     -0.90211193	     12.00303064
      0.52000000	      1.32333855	      0.38027025	     -2.02276083	     -0.70522572	      0.73883563	      0.37909700	      3.83811782	      2.36493578	    -10.23252469	    -20.04165327	     21.93824479	     -0.91453890	      0.00000000	     28.86716645	     -3.20077318	     -7.41964285	    -59.85654958	     -7.19261805	    -25.03316755	      0.00000000	    -12.40771576	     -0.96780184	     12.36237293
      0.52666667	      1.44001804	      0.36214830	     -2.34121957	     -0.69739342	      0.73855968	      0.37946475	      2.94526600	      2.42833492	     -9.89343998	    -19.85811533	     22.31075631	     -0.99029395	      0.00000000	     28.92614736	     -3.35082254	     -7.97821767	    -57.54418386	     -7.00987849	    -25.12103299	      0.00000000	    -12.56743433	     -1.01020547	     12.53717851
      0.53333333	      1.29819106	      0.14147848	     -2.42705986	     -0.68994131	      0.73768211	      0.37965789	      2.50370906	      2.67198964	     -9.99522322	    -19.96588865	     22.53428919	     -1.06607980	      0.00000000	     29.38910297	     -3.62220483	     -8.22626412	    -55.30198037	     -6.98682885	    -25.11073755	      0.00000000	    -12.49217152	     -0.76669549	     12.52916558
      0.54000000	      1.67693746	      0.25216993	     -2.96183218	     -0.68171734	      0.73763592	      0.38019700	      1.21581949	      2.59983846	     -9.30479320	    -19.61604780	     23.02090639	     -1.16361642	      0.00000000	     28.74525851	     -3.75839278	     -9.26770518	    -52.37156342	     -6.64428622	    -25.36215992	      0.00000000	    -12.91790971	     -1.02567196	     12.84326982
      0.54666667	      1.76413214	      0.14909303	     -3.29375987	     -0.67386864	      0.73698288	      0.38062487	      0.39314065	      2.73369535	     -8.99404807	    -19.51891484	     23.29031410	     -1.32243992	      0.00000000	     28.54215644	     -4.04741955	    -10.06177358	    -49.52921064	     -6.43298505	    -25.35179290	      0.00000000	    -13.06267840	     -0.99361146	     13.12495562
      0.55333333	      1.83258984	      0.02446192	     -3.57445975	     -0.66607764	      0.73618942	      0.38093308	     -0.35688635	      2.86416906	     -8.77681872	    -19.52296056	     23.61682082	     -1.46479557	      0.00000000	     28.28560078	     -4.30649072	    -10.85302331	    -46.52541832	     -6.15760047	    -25.29001545	      0.00000000	    -13.21552689	     -0.93410433	     13.20026421
      0.56000000	      1.90456463	     -0.11139104	     -3.85864479	     -0.65822706	      0.73530884	      0.38126657	     -1.12928418	      3.00064017	     -8.57096737	    -19.51916632	     23.91846313	     -1.55306072	      0.00000000	     27.92402004	     -4.57378877	    -11.76255005	    -43.35440134	     -5.82840572	    -25.03049436	      0.00000000	    -13.36030147	     -0.87063363	     13.32506790
      0.56666667	      1.64883178	     -0.53553414	     -3.83384142	     -0.65074825	      0.73375339	      0.38132263	     -1.43713283	      3.45229904	     -8.83181396	    -19.71378467	     24.18645430	     -1.66417452	      0.00000000	     28.13469109	     -5.00922043	    -12.27644514	    -40.41354960	     -5.77260249	    -24.90341298	      0.00000000	    -13.19578304	     -0.38380881	     13.24845135
      0.57333333	      2.00566685	     -0.47043171	     -4.45038943	     -0.64242478	      0.73322180	      0.38188061	     -2.58082442	      3.29155533	     -8.32349972	    -19.63804732	     24.56671109	     -1.54002587	      0.00000000	     27.03794869	     -5.21690506	    -14.10358779	    -36.72329975	     -4.48064315	    -23.05859789	      0.00000000	    -13.61722274	     -0.65004242	     13.65640878
      0.58000000	      1.98369436	     -0.61679155	     -4.60843170	     -0.63459532	      0.73203373	      0.38184983	     -3.19653037	      3.37058277	     -8.34577714	    -19.76198951	     24.82003204	     -1.52852994	      0.00000000	     26.57365027	     -5.27609266	    -15.07992315	    -33.15833859	     -4.16533157	    -22.42582930	      0.00000000	    -13.68411981	     -0.55180049	     13.51438601
      0.58666667	      2.00403481	     -0.75248054	     -4.84472741	     -0.62665076	      0.73084086	      0.38186293	     -3.86032179	      3.39682598	     -8.39271675	    -19.89250233	     25.11482865	     -1.37074464	      0.00000000	     25.97922341	     -5.33420988	    -16.31730177	    -29.52771332	     -3.66545841	    -21.28986871	      0.00000000	    -13.79815904	     -0.47771970	     13.50938908
      0.59333333	      2.10460644	     -0.96110199	     -5.21715737	     -0.61839505	      0.72958877	      0.38207701	     -4.62934922	      3.43097223	     -8.45529159	    -20.06283604	     25.64197119	     -0.68114724	      0.00000000	     25.32980722	     -5.65729632	    -18.31030936	    -26.19164699	     -1.95172307	    -17.94807830	      0.00000000	    -13.95004633	     -0.35334718	     13.77877871
      0.60000000	      2.08927639	     -1.03824216	     -5.38707385	     -0.61037686	      0.72825213	      0.38175134	     -5.21062735	      3.31943826	     -8.66059856	    -20.29244595	     25.89524915	     -0.51892364	      0.00000000	     24.73239285	     -5.43484904	    -19.51360934	    -22.56118733	     -1.55307596	    -16.55997856	      0.00000000	    -14.01555047	     -0.30978488	     13.67688328
      0.60666667	      2.10738400	     -1.20440458	     -5.68085432	     -0.60214336	      0.72683403	      0.38162088	     -5.82117286	      3.23731042	     -8.83748634	    -20.60013666	     26.45290504	      0.43036251	      0.00000000	     24.18733996	     -5.45666535	    -21.25103152	    -19.35360080	     -0.17099441	    -13.26280114	      0.00000000	    -14.08857381	     -0.19543868	     13.89378555
      0.61333333	      2.06965753	     -1.29602866	     -5.89143889	     -0.59394060	      0.72533798	      0.38125702	     -6.33971562	      3.06550268	     -9.05743580	    -20.94976390	     26.82895874	      1.10477456	      0.00000000	     23.71243543	     -5.22313110	    -22.62753795	    -16.20517705	      0.68621265	    -10.68162191	      0.00000000	    -14.10110258	     -0.15261495	     13.88179487
      0.62000000	      2.00993686	     -1.37418221	     -6.08752164	     -0.58570574	      0.72379518	      0.38079142	     -6.80186283	      2.84855967	     -9.28762248	    -21.36306093	     27.19483616	      1.85061932	      0.00000000	     23.30663965	     -4.91109946	    -23.81258704	    -13.30246841	      1.40379732	     -8.25078585	      0.00000000	    -14.08506715	     -0.11465396	     13.86338550
      0.62666667	      1.97776861	     -1.43463071	     -6.25898644	     -0.57738619	      0.72230077	      0.38025094	     -7.29573828	      2.59322263	     -9.49518182	    -21.78098984	     27.48770657	      2.59121385	      0.00000000	     22.89459648	     -4.51432518	    -24.73476135	    -10.64042203	      1.90977735	     -6.22976946	      0.00000000	    -14.09691363	     -0.09240197	     13.87348906
      0.63333333	      1.90988368	     -1.47931154	     -6.39165755	     -0.56901982	      0.72078977	      0.37971560	     -7.69090895	      2.32850022	     -9.67203957	    -22.30799814	     27.62359537	      3.15644028	      0.00000000	     22.57118294	     -4.08742521	    -25.35875170	     -8.32549447	      2.20539980	     -4.61558099	      0.00000000	    -14.03307828	     -0.11204797	     13.79611883
      0.64000000	      1.85546784	     -1.48824014	     -6.54911027	     -0.56065070	      0.71935508	      0.37914310	     -8.07284706	      1.99276325	     -9.80732794	    -22.86374847	     27.77268046	      3.95680167	      0.00000000	     22.31019290	     -3.66245550	    -25.90208082	     -6.44356859	      2.58963114	     -2.98970603	      0.00000000	    -14.03581690	     -0.17235168	     13.82262241
